<svg id="svg91" xmlns="http://www.w3.org/2000/svg" xmlns:xlink="http://www.w3.org/1999/xlink" viewBox="0 0 1920 1080"><defs><style>.cls-1{fill:url(#linear-gradient);}.cls-2{fill:#bf9751;}.cls-3{fill:#fff;}.cls-4{fill:url(#radial-gradient);}</style><linearGradient id="linear-gradient" x1="487.62" y1="768.81" x2="486.15" y2="408.54" gradientTransform="matrix(1.69, 0, 0, -2.47, 136.66, 1906.88)" gradientUnits="userSpaceOnUse"><stop offset="0" stop-color="#ADD8E6"/><stop offset="1" stop-color="#a7c799"/></linearGradient><radialGradient id="radial-gradient" cx="-90.43" cy="383.98" r="80.56" gradientTransform="matrix(1, 0, 0, -1, 1050.43, 1134.29)" gradientUnits="userSpaceOnUse"><stop offset="0" stop-color="#fff"/><stop offset="1" stop-color="#fff" stop-opacity="0"/></radialGradient></defs><title>test</title><g id="g89"><rect id="rect9" class="cls-1" width="1920" height="896.66"/><path id="path11" class="cls-2" d="M0,886.34l316.56-9.14,127.09-13.84,60.49,23,172.91-55.47,614.38,43.45,628.5-11.84.27,402.45L0,1261.16Z" transform="translate(0 -0.14)"/><path id="path77" class="cls-3" d="M985,750.31a25,25,0,1,1-25-25A25,25,0,0,1,985,750.31Z" transform="translate(0 -0.14)"/><path id="path83" class="cls-4" d="M1040.56,750.31A80.56,80.56,0,1,1,960,669.75,80.56,80.56,0,0,1,1040.56,750.31Z" transform="translate(0 -0.14)"/></g></svg>